<?xml version="1.0" standalone="no"?>
<!DOCTYPE svg PUBLIC "-//W3C//DTD SVG 20010904//EN"
 "http://www.w3.org/TR/2001/REC-SVG-20010904/DTD/svg10.dtd">
<svg version="1.0" xmlns="http://www.w3.org/2000/svg"
 width="700.000000pt" height="700.000000pt" viewBox="0 0 700.000000 700.000000"
 preserveAspectRatio="xMidYMid meet">
<metadata>
Created by potrace 1.14, written by Peter Selinger 2001-2017
</metadata>
<g transform="translate(0.000000,700.000000) scale(0.100000,-0.100000)"
fill="#000000" stroke="none">
<path d="M0 6992 c0 -4 74 -81 165 -170 91 -90 165 -158 165 -152 0 6 -13 30
-28 53 -16 23 -40 67 -54 97 -14 31 -42 83 -64 117 l-39 62 -72 1 c-40 0 -73
-4 -73 -8z"/>
<path d="M187 6988 c6 -7 40 -69 75 -138 36 -69 74 -139 84 -157 18 -31 18
-33 2 -50 -17 -16 -26 -8 -183 147 l-165 164 0 -3477 0 -3477 2921 0 c2778 0
2921 1 2914 18 -4 9 -11 37 -15 62 -5 25 -20 95 -34 155 -38 164 -40 183 -26
200 17 20 35 5 60 -49 34 -74 131 -300 148 -344 l16 -42 64 0 c35 0 61 4 58 9
-5 8 -58 202 -76 281 -8 34 -46 180 -108 418 -20 78 -26 112 -17 112 7 0 22
-38 35 -87 31 -121 71 -272 135 -516 30 -115 55 -210 55 -213 0 -2 52 -4 115
-4 63 0 115 3 115 8 -1 4 -14 32 -30 62 -17 30 -30 63 -30 73 0 9 -4 17 -9 17
-5 0 -20 30 -34 68 -21 56 -108 254 -232 527 -15 33 -34 76 -42 95 -8 19 -21
47 -29 63 -12 21 -12 27 -2 27 13 0 28 -29 87 -160 16 -36 45 -101 66 -145 20
-44 44 -96 52 -115 9 -19 28 -63 44 -97 16 -34 29 -64 29 -67 0 -6 57 -132
118 -258 39 -81 51 -98 70 -98 18 0 21 3 14 17 -5 10 -19 47 -31 83 -12 36
-26 74 -31 85 -5 11 -19 47 -30 80 -12 33 -25 69 -30 80 -5 11 -21 54 -35 95
-15 41 -41 114 -58 163 -30 83 -30 88 -13 105 24 24 1 53 347 -443 175 -252
182 -260 217 -263 28 -3 34 -1 25 10 -9 12 -39 65 -112 200 -24 45 -24 49 -9
64 16 16 27 8 166 -129 81 -81 151 -147 155 -147 4 0 7 1575 7 3500 l0 3500
-2921 0 c-1781 0 -2918 -4 -2914 -9 5 -9 11 -38 35 -156 5 -22 22 -101 39
-175 35 -153 36 -163 18 -179 -26 -21 -41 5 -182 339 -20 47 -46 106 -58 133
l-22 47 -51 0 -52 0 24 -92 c14 -51 39 -145 55 -208 35 -132 96 -369 109 -420
4 -19 20 -75 34 -125 14 -49 30 -106 35 -125 5 -19 14 -53 20 -75 36 -140 44
-173 45 -200 1 -26 -3 -30 -24 -30 -19 0 -30 10 -45 40 -32 62 -135 296 -135
306 0 5 -15 42 -34 82 -19 40 -44 95 -56 122 -13 28 -42 92 -66 143 -24 52
-44 96 -44 98 0 3 -13 33 -29 67 -16 34 -43 96 -61 137 -18 41 -50 109 -71
151 -21 41 -43 87 -48 102 -6 15 -17 27 -26 27 -20 0 -20 2 14 -88 16 -42 35
-97 42 -122 7 -25 16 -49 19 -55 4 -5 21 -53 39 -105 18 -52 36 -104 41 -115
5 -11 25 -67 45 -125 20 -58 41 -113 46 -122 14 -27 11 -58 -8 -65 -11 -4 -28
7 -55 38 -38 43 -170 231 -195 276 -10 19 -163 235 -222 313 -10 14 -42 58
-71 98 -35 47 -59 72 -73 72 -14 0 -17 -3 -10 -12z m1783 -68 c8 -5 194 -188
413 -407 220 -219 409 -405 422 -413 39 -26 78 -81 78 -110 0 -33 -18 -57
-101 -133 -41 -38 -70 -57 -83 -55 -10 2 -153 136 -317 298 -164 162 -313 309
-332 327 -19 17 -45 45 -58 62 -13 17 -28 31 -33 31 -5 0 -9 -351 -9 -888 0
-677 -3 -891 -12 -900 -30 -30 -62 -13 -169 91 -90 88 -107 109 -112 143 -8
49 -9 1656 -1 1706 7 38 86 130 187 217 49 42 93 53 127 31z m4131 -397 c31
-39 39 -62 26 -70 -44 -28 -82 16 -61 71 8 21 18 20 35 -1z m-2649 -1290 l408
-408 -243 3 -243 3 -329 329 c-182 182 -332 330 -335 330 -3 0 -4 -290 -2
-645 2 -504 5 -645 15 -645 6 0 179 31 382 69 257 47 372 65 377 57 4 -6 8
-362 8 -791 l0 -780 -398 3 -398 2 -404 405 -405 405 235 0 235 0 335 -335
c184 -184 338 -335 342 -335 5 0 8 293 8 651 l0 652 -62 -7 c-35 -4 -213 -26
-395 -50 l-333 -42 0 768 0 768 397 0 397 0 408 -407z m1308 -1168 l406 -405
-236 0 -235 0 -330 330 c-181 182 -333 330 -337 330 -5 0 -8 -291 -8 -646 l0
-646 23 5 c82 21 741 136 748 131 5 -3 9 -329 9 -790 l0 -784 -398 0 -397 0
-405 405 -405 405 240 0 240 0 337 -337 338 -338 0 651 c0 358 -2 653 -5 656
-5 5 -5 5 -449 -51 -175 -23 -322 -41 -327 -41 -5 0 -9 336 -9 765 l0 765 397
0 398 0 405 -405z m498 -1878 c69 -69 105 -114 112 -137 11 -39 14 -1654 4
-1711 -5 -26 -34 -62 -119 -146 -108 -109 -113 -113 -155 -113 l-42 0 -454
454 c-401 402 -454 458 -454 486 0 24 15 46 76 110 42 44 85 80 95 80 11 0
168 -149 381 -361 l363 -361 3 888 c1 635 5 891 13 901 6 7 26 13 43 13 26 0
47 -16 134 -103z m594 -1004 c15 -17 42 -74 89 -181 22 -51 22 -52 8 -52 -5 0
-26 35 -45 78 -59 128 -66 143 -71 138 -3 -2 7 -50 22 -106 14 -56 23 -105 20
-108 -8 -8 -24 17 -31 48 -8 39 -24 102 -36 138 -7 24 -6 37 2 47 16 19 24 19
42 -2z m36 -260 c5 -10 13 -35 16 -57 6 -29 4 -37 -6 -34 -7 3 -16 18 -19 34
-4 16 -11 39 -14 52 -9 26 10 30 23 5z"/>
<path d="M1792 6797 l-112 -112 0 -865 0 -865 107 -107 c58 -60 113 -108 120
-108 13 0 14 72 12 513 -2 281 -2 700 -1 929 l2 417 34 -19 c18 -11 57 -47 87
-80 130 -145 223 -239 230 -234 5 3 9 -1 9 -8 0 -7 81 -94 180 -193 99 -99
180 -176 180 -171 0 5 9 1 20 -9 11 -10 20 -24 20 -32 0 -18 35 -17 50 2 7 8
9 15 4 15 -5 0 18 27 51 60 l59 60 -44 45 c-24 25 -40 45 -35 45 6 0 -138 148
-319 329 -181 182 -334 329 -340 328 -5 -1 -15 9 -22 22 -21 41 -137 151 -159
151 -13 0 -63 -42 -133 -113z"/>
<path d="M5108 1339 l-3 -931 -385 381 c-212 209 -392 381 -400 381 -20 0
-150 -130 -150 -150 0 -23 911 -920 934 -920 11 0 66 47 133 112 l113 112 0
864 0 865 -107 108 c-59 60 -113 109 -120 109 -10 0 -13 -174 -15 -931z"/>
<path d="M330 6901 c39 -54 70 -102 70 -106 0 -8 184 -269 220 -310 14 -17 59
-81 100 -143 41 -62 76 -109 77 -105 5 15 -142 429 -221 623 -15 36 -30 81
-34 100 l-8 35 -137 3 -137 3 70 -100z"/>
<path d="M630 6995 c0 -2 11 -30 25 -61 14 -31 25 -60 25 -64 0 -5 15 -41 34
-82 19 -40 102 -225 186 -411 83 -187 166 -369 184 -405 19 -37 46 -95 61
-130 15 -34 29 -61 31 -60 2 3 -40 174 -85 338 -11 42 -23 91 -26 110 -3 19
-20 87 -36 150 -17 63 -48 185 -70 270 -22 85 -43 158 -46 163 -3 5 -11 38
-19 75 -24 115 -19 112 -151 112 -62 0 -113 -2 -113 -5z"/>
<path d="M1030 6994 c0 -7 75 -184 106 -250 13 -28 24 -54 24 -58 0 -4 11 -31
24 -59 13 -29 32 -70 40 -91 28 -67 28 -33 1 75 -14 57 -41 168 -58 246 l-32
143 -52 0 c-29 0 -53 -2 -53 -6z"/>
<path d="M6220 668 c5 -13 53 -144 106 -293 53 -148 105 -294 116 -322 l19
-53 120 0 c65 0 119 2 119 6 0 7 -63 100 -155 229 -39 55 -127 180 -195 278
-115 164 -153 210 -130 155z"/>
<path d="M5773 398 c3 -13 25 -106 47 -208 23 -102 43 -186 45 -188 1 -2 23
-2 48 0 l46 3 -60 140 c-33 77 -66 154 -74 170 -7 17 -20 47 -29 68 -16 41
-31 50 -23 15z"/>
<path d="M6690 251 c0 -4 30 -63 67 -130 l66 -121 66 0 66 0 -130 130 c-71 72
-131 130 -132 130 -2 0 -3 -4 -3 -9z"/>
</g>
</svg>
